<svg xmlns="http://www.w3.org/2000/svg" viewBox="0 0 184.06 91.39"><defs><style>.cls-1{fill:#1c1c1c;}.cls-2,.cls-4,.cls-5{fill:none;}.cls-2,.cls-4{stroke:#fff;}.cls-2{stroke-width:2px;}.cls-3{fill:#fff;}.cls-4,.cls-5{stroke-width:3px;}.cls-5{stroke:#1c1c1c;}.cls-6{isolation:isolate;}.cls-7{fill:#d03333;}</style></defs><g id="V1_Cut" data-name="V1 Cut"><g id="Layer_5_copy_4_Image" data-name="Layer 5 copy 4 Image"><path class="cls-1" d="M207.74,136.23c3.71-1.06,5.16-3.61,5.08-6.46a5.85,5.85,0,0,0-4.7-5.37,6.35,6.35,0,0,0-4.8,1.13c-1.55,1.09-1.8,2.8-2.56,4.22-1.68-.66-3.28-1.41-4.95-1.93-1.38-.43-2.88-.47-4.25-.91a8.35,8.35,0,0,1-2.3-1.5,1.72,1.72,0,0,1-.59-2.56c1.52-2.95,1.44-3.16,4.66-2.52a3.75,3.75,0,0,0,4.28-1.92c.46-.72.29-1.89.27-2.86-.09-3.14-.1-3.09,2.86-4.2a1.84,1.84,0,0,1,2.5.84c.66,1,1.43,1.88,2.16,2.82.1.12.23.29.35.3a20.38,20.38,0,0,1,2.36.12c1,.2,1.33-.46,1.82-1a33.49,33.49,0,0,1,2.43-2.62,1.39,1.39,0,0,1,1.18-.18c.93.33,1.81.82,2.72,1.2s.92,1,.82,1.77a24.48,24.48,0,0,0-.28,3.08,5,5,0,0,0,.45,2.07c1.05,2.2,3.11,1.22,4.79,1.42,0,0,.08,0,.12,0,2.11-.21,2.12-.21,2.87,1.67.13.33.23.68.36,1,.84,2.17.66,1.82-.75,2.94-.89.71-1.78,1.43-2.65,2.17-.66.57-.65,3.25,0,3.86,1.08,1,2.18,2,3.22,3a1.13,1.13,0,0,1,.23,1,24.28,24.28,0,0,1-1.31,3.06,1.37,1.37,0,0,1-1,.66,22.39,22.39,0,0,1-3.26-.34,3.23,3.23,0,0,0-3.87,3.63c.09,1.14,0,2.29.12,3.41a1,1,0,0,1-.8,1.23c-.9.33-1.81.62-2.69,1s-1.21,0-1.17-.83a17.47,17.47,0,0,0-1.45-7.72C209.35,139.29,208.52,137.81,207.74,136.23Z" transform="translate(-54.32 -95.63)"/></g><g id="Layer_5_copy_5_Image" data-name="Layer 5 copy 5 Image"><path class="cls-1" d="M187.92,127H157.68c.21-.38.44-.76.62-1.15.79-1.76,2-3.48.54-5.45a2.24,2.24,0,0,0-1-.77c-1.26-.46-2.58-.77-3.84-1.25a1.49,1.49,0,0,1-.85-1,22,22,0,0,1-.05-3.35,1.24,1.24,0,0,1,.52-.93,22.85,22.85,0,0,1,3.41-1.26,3.37,3.37,0,0,0,2-4.47c-.39-.73-.74-1.49-1.18-2.19-.71-1.11-1-2.08.34-3,.65-.42,1.09-1.16,1.7-1.65a1.39,1.39,0,0,1,1.13-.19c1.24.53,2.42,1.18,3.64,1.76.9.43,3.33-.45,3.71-1.38a17.37,17.37,0,0,0,.86-2.55c.57-2.31.55-2.32,3-2.39a11.38,11.38,0,0,0,1.3-.1c1.1-.16,1.55.43,1.81,1.4s.68,2.18,1,3.26c.44,1.3,3,2.19,4.17,1.51s2.41-1.33,3.66-1.92a1.11,1.11,0,0,1,1,.19c.72.62,1.31,1.39,2,2a1.47,1.47,0,0,1,.42,2c-.58,1.21-1.15,2.44-1.69,3.67a3.18,3.18,0,0,0,1.81,3.6c1.32.37,2.62.8,3.91,1.26a1,1,0,0,1,.6.69,25.1,25.1,0,0,1-.07,3.47,1.6,1.6,0,0,1-.77,1.13c-1.14.53-2.35.92-3.55,1.34a3.51,3.51,0,0,0-1.69,4.18C186.83,124.6,187.37,125.78,187.92,127Zm-9.32-11.65a5.66,5.66,0,0,0-5.8-5.79,5.93,5.93,0,0,0-.52,11.85C176,121.4,178.67,118.81,178.6,115.31Z" transform="translate(-54.32 -95.63)"/></g><g id="Layer_5_copy_6_Image" data-name="Layer 5 copy 6 Image"><path class="cls-1" d="M134.88,127H119.52c.48-1.39.92-2.79,1.46-4.15a1.16,1.16,0,0,1,.91-.53c1.31,0,2.62,0,3.92,0,1.11,0,2.93-1.73,2.89-2.82a18.46,18.46,0,0,0-.29-2.68c-.45-2.32-.47-2.32,1.68-3.4a9.72,9.72,0,0,0,1.14-.63c.94-.66,1.59-.25,2.24.51s1.53,1.69,2.33,2.52,3.63.7,4.41-.4,1.62-2.23,2.5-3.29a1.15,1.15,0,0,1,1-.25c.91.26,1.77.71,2.68,1a1.47,1.47,0,0,1,1.22,1.64c0,1.35,0,2.7,0,4.05s1.9,2.69,3.17,2.48,2.72-.38,4.08-.5a1,1,0,0,1,.83.4c.52,1,.9,2,1.41,3a1.23,1.23,0,0,1-.36,1.67,8.24,8.24,0,0,0-1,1.34H143C141.36,124.74,136.43,124.46,134.88,127Z" transform="translate(-54.32 -95.63)"/></g></g><g id="Top_Line" data-name="Top Line"><line class="cls-2" x1="26.91" y1="39.23" x2="53.66" y2="39.23"/><line class="cls-2" x1="26.91" y1="58.51" x2="53.66" y2="58.51"/><line class="cls-2" x1="53.66" y1="48.97" x2="26.91" y2="49.3"/><line class="cls-2" x1="53.66" y1="68.41" x2="26.91" y2="68.41"/></g><g id="USB"><g id="Ellipse_1" data-name="Ellipse 1"><circle class="cls-3" cx="155.56" cy="81.85" r="8.04"/><circle class="cls-4" cx="155.56" cy="81.85" r="8.04"/></g><g id="Rectangle_7" data-name="Rectangle 7"><rect class="cls-1" x="164.56" y="75.01" width="18" height="13.92" rx="1.2"/><rect class="cls-5" x="164.56" y="75.01" width="18" height="13.92" rx="1.2"/></g><g id="Rectangle_8_copy" data-name="Rectangle 8 copy"><path class="cls-3" d="M233.4,181.51h-1.92a2.37,2.37,0,0,0-1.08.13c0,.08.48.14,1.08.14h1.92c.6,0,1.08-.06,1.08-.14A2.37,2.37,0,0,0,233.4,181.51Z" transform="translate(-54.32 -95.63)"/><path class="cls-4" d="M233.4,181.51h-1.92a2.37,2.37,0,0,0-1.08.13c0,.08.48.14,1.08.14h1.92c.6,0,1.08-.06,1.08-.14A2.37,2.37,0,0,0,233.4,181.51Z" transform="translate(-54.32 -95.63)"/></g><g id="Rectangle_8_copy-2" data-name="Rectangle 8 copy"><path class="cls-3" d="M233.4,173.52h-1.92a2.37,2.37,0,0,0-1.08.13c0,.08.48.14,1.08.14h1.92c.6,0,1.08-.06,1.08-.14A2.37,2.37,0,0,0,233.4,173.52Z" transform="translate(-54.32 -95.63)"/><path class="cls-4" d="M233.4,173.52h-1.92a2.37,2.37,0,0,0-1.08.13c0,.08.48.14,1.08.14h1.92c.6,0,1.08-.06,1.08-.14A2.37,2.37,0,0,0,233.4,173.52Z" transform="translate(-54.32 -95.63)"/></g><g id="Rectangle_6" data-name="Rectangle 6"><path class="cls-3" d="M221.52,169.44h-11a2.36,2.36,0,0,0-2.4,2.33v11.42a2.36,2.36,0,0,0,2.4,2.33h11a2.36,2.36,0,0,0,2.4-2.33V171.77A2.36,2.36,0,0,0,221.52,169.44Z" transform="translate(-54.32 -95.63)"/><path class="cls-4" d="M221.52,169.44h-11a2.36,2.36,0,0,0-2.4,2.33v11.42a2.36,2.36,0,0,0,2.4,2.33h11a2.36,2.36,0,0,0,2.4-2.33V171.77A2.36,2.36,0,0,0,221.52,169.44Z" transform="translate(-54.32 -95.63)"/></g><polyline class="cls-2" points="26.91 68.41 1 68.41 1 81.97 152.68 81.97"/></g><g id="Rectangle_3" data-name="Rectangle 3" class="cls-6"><g id="Rectangle_3-2" data-name="Rectangle 3"><rect class="cls-1" x="16.3" y="33.5" width="21.23" height="42.98" rx="0.48"/><rect class="cls-5" x="16.3" y="33.5" width="21.23" height="42.98" rx="0.48"/></g></g><g id="RRC"><path class="cls-3" d="M114.06,149.64h7.08c5.1,0,7.62-3.66,7.62-7.32s-2.52-7.26-7.62-7.26h-9.3v35.88h-6v-42h15.3c9.12,0,13.68,6.72,13.68,13.38A12.64,12.64,0,0,1,124,155.16l13.26,15.78h-7.86l-15.3-18.42Z" transform="translate(-54.32 -95.63)"/><path class="cls-7" d="M145.68,149.64h7.08c5.1,0,7.62-3.66,7.62-7.32s-2.52-7.26-7.62-7.26h-9.3v35.88h-6v-42h15.3c9.12,0,13.68,6.72,13.68,13.38a12.64,12.64,0,0,1-10.86,12.84l13.26,15.78H161l-15.3-18.42Z" transform="translate(-54.32 -95.63)"/><path class="cls-3" d="M174.24,135a20.26,20.26,0,0,1,14.52-6.24c9.6,0,17.16,6,19.56,15.48h-6c-2.22-6.3-7.38-9.48-13.56-9.48a14.29,14.29,0,0,0-10.32,4.5,15.51,15.51,0,0,0,0,21.48,14.46,14.46,0,0,0,24.24-5.52h5.94c-2.4,9.54-10.08,16-19.86,16A20,20,0,0,1,174.24,165a21.75,21.75,0,0,1,0-30Z" transform="translate(-54.32 -95.63)"/></g></svg>